<?xml version="1.0" encoding="utf-8"?><svg xmlns="http://www.w3.org/2000/svg" xmlns:xlink="http://www.w3.org/1999/xlink"><symbol viewBox="0 0 10 6" id="arrow" xmlns="http://www.w3.org/2000/svg"><path fill-rule="evenodd" clip-rule="evenodd" d="M.286.7a.698.698 0 000 .985L4.22 5.627c.15.15.352.218.548.202a.693.693 0 00.508-.204l3.935-3.94A.697.697 0 008.227.7l-3.48 3.484L1.269.7a.694.694 0 00-.983 0z"/></symbol><symbol viewBox="0 0 64 64" id="arrow-down" xmlns="http://www.w3.org/2000/svg"><path d="M32 8a2 2 0 00-2 2v39.899L15.448 34.621a2 2 0 00-2.897 2.758l16.62 17.449A3.973 3.973 0 0032 56c1.068 0 2.073-.416 2.862-1.207l16.586-17.414a2 2 0 00-2.896-2.758L34 49.963V10a2 2 0 00-2-2z"/></symbol><symbol viewBox="0 0 10 16" id="arrow-pag" xmlns="http://www.w3.org/2000/svg"><path d="M8.738 14.488L2.016 7.96l6.722-6.528"/></symbol><symbol viewBox="0 0 64 64" id="arrow-up" xmlns="http://www.w3.org/2000/svg"><path d="M32 56a2 2 0 002-2V14.101l14.552 15.278c.393.413.92.621 1.448.621a2 2 0 001.448-3.38L34.829 9.172C34.073 8.417 33.069 8 32 8s-2.073.417-2.862 1.207L12.552 26.621a2 2 0 102.897 2.759L30 14.038V54a2 2 0 002 2z"/></symbol><symbol viewBox="0 0 15 12" id="basket" xmlns="http://www.w3.org/2000/svg"><path fill-rule="evenodd" clip-rule="evenodd" d="M5.56.36a.694.694 0 011.002 0 .744.744 0 010 1.03L4.145 3.878h6.664L8.392 1.39a.744.744 0 010-1.03.694.694 0 011.002 0l3.003 3.091c.116.12.184.271.202.427h1.094c.447 0 .782.42.694.872l-1.84 5.83a.713.713 0 01-.695.585h-8.75a.713.713 0 01-.694-.585L.568 4.75c-.088-.451.247-.872.694-.872h1.093a.734.734 0 01.202-.427L5.561.36zM3.939 5.7a.36.36 0 01.354-.364.36.36 0 01.354.364v3.644a.36.36 0 01-.354.364.36.36 0 01-.354-.364V5.7zm2.123 0a.36.36 0 01.354-.364.36.36 0 01.354.364v3.644a.36.36 0 01-.354.364.36.36 0 01-.354-.364V5.7zm2.478-.364a.36.36 0 00-.354.364v3.644a.36.36 0 00.354.364.36.36 0 00.354-.364V5.7a.36.36 0 00-.354-.364zm1.77.364a.36.36 0 01.354-.364.36.36 0 01.354.364v3.644a.36.36 0 01-.354.364.36.36 0 01-.354-.364V5.7z"/></symbol><symbol viewBox="0 0 23 18" id="basket-svg" xmlns="http://www.w3.org/2000/svg"><path fill-rule="evenodd" clip-rule="evenodd" d="M8.574.563a1.064 1.064 0 011.536 0 1.142 1.142 0 010 1.581L6.4 5.961h10.226l-3.709-3.817a1.141 1.141 0 010-1.581 1.064 1.064 0 011.536 0l4.609 4.743c.178.184.282.416.31.655h1.678c.685 0 1.2.646 1.065 1.338l-2.824 8.945a1.095 1.095 0 01-1.065.899H4.8c-.518 0-.963-.377-1.065-.9L.912 7.3c-.134-.692.38-1.338 1.065-1.338h1.678c.028-.239.132-.47.31-.655L8.574.563zm-2.49 8.194c0-.309.242-.56.542-.56.3 0 .543.251.543.56v5.59a.551.551 0 01-.543.56c-.3 0-.543-.25-.543-.56v-5.59zm3.258 0c0-.309.243-.56.543-.56.3 0 .543.251.543.56v5.59a.551.551 0 01-.543.56c-.3 0-.543-.25-.543-.56v-5.59zm3.801-.56c-.3 0-.543.251-.543.56v5.59c0 .31.243.56.543.56.3 0 .543-.25.543-.56v-5.59a.551.551 0 00-.543-.56zm2.716.56c0-.309.243-.56.543-.56.3 0 .543.251.543.56v5.59a.551.551 0 01-.543.56c-.3 0-.543-.25-.543-.56v-5.59z"/></symbol><symbol viewBox="0 0 19 19" id="close-modal" xmlns="http://www.w3.org/2000/svg"><path d="M9.125.281c-4.95 0-9 4.05-9 9s4.05 9 9 9 9-4.05 9-9-4.05-9-9-9zm3.938 11.363l-1.575 1.575-2.363-2.362-2.362 2.362-1.575-1.575L7.55 9.281 5.188 6.92l1.575-1.575 2.362 2.362 2.363-2.362 1.575 1.575L10.7 9.281l2.363 2.363z"/></symbol><symbol viewBox="0 0 17.9 17.6" id="corrected" xmlns="http://www.w3.org/2000/svg"><path d="M10.1 10.5l2.1.5.4-1.6.8-.2 1 1.5 1.8-1.2-1-1.5.5-.7 1.7.4.5-2.1-1.7-.4-.2-.8 1.5-1-1.2-1.8-1.5 1-.7-.5.4-1.6-2.1-.5-.4 1.6-.9.1-.9-1.5-1.8 1.3.9 1.5-.4.6-1.6-.3-.5 2.1 1.6.3.2.9-1.5.9 1.2 1.8 1.5-.9.7.5-.4 1.6zm.2-5.5c.2-1.1 1.3-1.8 2.4-1.5 1.1.2 1.8 1.3 1.5 2.4-.2 1.1-1.3 1.8-2.4 1.5-1.1-.2-1.7-1.3-1.5-2.4z"/><path d="M3.3 17.2l2.1.4.3-1.6.8-.2 1 1.5 1.8-1.2-1-1.5.5-.6 1.7.4.5-2.1-1.7-.4-.1-.8 1.5-1-1.2-1.8-1.5 1-.7-.5.4-1.6-2.1-.5-.4 1.6-.8.2-1-1.5-1.8 1.2.9 1.5-.5.6L.5 10 0 12.1l1.6.3.2.9-1.5.9L1.5 16l1.5-.9.7.5-.4 1.6zm.2-5.5c.2-1.1 1.3-1.8 2.4-1.5 1.1.2 1.8 1.3 1.5 2.4-.2 1.1-1.3 1.8-2.4 1.5-1.1-.2-1.8-1.3-1.5-2.4z"/></symbol><symbol viewBox="0 0 19 19" id="delete" xmlns="http://www.w3.org/2000/svg"><path d="M2.263 6.41h13.5v9.75a2.25 2.25 0 01-2.25 2.25h-9a2.25 2.25 0 01-2.25-2.25V6.41zm4.5 8.25V9.41h-1.5v5.25h1.5zm3 0V9.41h-1.5v5.25h1.5zm3 0V9.41h-1.5v5.25h1.5zm4.5-11.25a.75.75 0 010 1.5H.763a.75.75 0 110-1.5h4.5V1.16a.75.75 0 01.75-.75h6a.75.75 0 01.75.75v2.25h4.5zm-10.5-1.5v1.5h4.5v-1.5h-4.5z"/></symbol><symbol viewBox="0 0 13 10" id="email-menu" xmlns="http://www.w3.org/2000/svg"><path d="M1.95 3.268c.142.11.57.434 1.285.974s1.262.956 1.642 1.248l.266.209c.136.107.25.193.339.26.09.066.198.14.326.222.128.082.248.144.36.184a.918.918 0 00.314.062h.012c.097 0 .201-.02.314-.062.113-.04.233-.102.36-.184a6.66 6.66 0 00.665-.482l.266-.209 2.934-2.222c.305-.232.56-.513.764-.841a1.92 1.92 0 00.307-1.032c0-.301-.099-.559-.298-.773a.932.932 0 00-.705-.321H1.875c-.322 0-.57.118-.743.355-.173.237-.26.533-.26.89 0 .286.115.598.345.932.23.335.474.599.733.79z"/><path d="M11.477 4a131.317 131.317 0 00-3.121 2.358c-.239.192-.432.341-.58.448a3.482 3.482 0 01-.593.328 1.676 1.676 0 01-.689.168H6.481a1.68 1.68 0 01-.689-.168 3.482 3.482 0 01-.592-.328 14.894 14.894 0 01-.58-.448C4.056 5.908 3.018 5.121 1.505 4a3.428 3.428 0 01-.633-.594v5.428c0 .301.098.559.295.773a.927.927 0 00.708.322h9.226a.927.927 0 00.708-.322c.197-.214.295-.471.295-.773V3.405c-.18.218-.389.417-.627.594z"/></symbol><symbol viewBox="0 0 11 23" id="facebook" xmlns="http://www.w3.org/2000/svg"><path d="M10.143 11.496h-2.93v10.858H2.779V11.496H.67V7.682h2.11V5.213c0-1.765.827-4.53 4.476-4.53l3.285.014v3.705H8.156c-.392 0-.942.198-.942 1.039v2.244h3.315l-.386 3.811z"/></symbol><symbol viewBox="0 0 17 17" id="filter" xmlns="http://www.w3.org/2000/svg"><path d="M15.77.156H1.15a.69.69 0 00-.613.363c-.12.227-.099.5.054.707l5.357 7.362.005.008c.195.256.3.567.3.886v6.002a.66.66 0 00.2.475.694.694 0 00.754.144l3.01-1.12a.637.637 0 00.45-.627V9.482c0-.32.105-.63.3-.886 0-.003.003-.005.005-.008l5.357-7.362a.665.665 0 00.054-.707.69.69 0 00-.612-.363z"/></symbol><symbol viewBox="0 0 17 18" id="go" xmlns="http://www.w3.org/2000/svg"><path d="M16.233 1.275a1.024 1.024 0 00-1.068-.24L.832 6.156a1.022 1.022 0 00-.114 1.88l4.696 2.346 6-4.286-4.286 6.002 2.346 4.696c.176.347.53.565.917.565l.062-.002c.41-.025.765-.29.903-.678l5.12-14.335a1.026 1.026 0 00-.242-1.068z"/></symbol><symbol viewBox="0 0 18 18" id="instagram" xmlns="http://www.w3.org/2000/svg"><path d="M12.851.25H5.233A4.697 4.697 0 00.542 4.94v7.618a4.696 4.696 0 004.691 4.691h7.617a4.697 4.697 0 004.692-4.69V4.94A4.697 4.697 0 0012.852.25zm3.183 12.31a3.186 3.186 0 01-3.184 3.182H5.233a3.186 3.186 0 01-3.183-3.183V4.941a3.186 3.186 0 013.183-3.183h7.617a3.187 3.187 0 013.184 3.183v7.618z"/><path d="M9.042 4.37a4.385 4.385 0 00-4.38 4.38 4.385 4.385 0 004.38 4.38 4.385 4.385 0 004.38-4.38 4.385 4.385 0 00-4.38-4.38zm0 7.252A2.875 2.875 0 016.17 8.75a2.875 2.875 0 012.872-2.872 2.875 2.875 0 012.872 2.872 2.875 2.875 0 01-2.872 2.872zM13.606 3.09A1.11 1.11 0 0012.5 4.198c0 .29.119.576.325.782.205.205.49.324.781.324.292 0 .576-.119.783-.324a1.111 1.111 0 000-1.565 1.11 1.11 0 00-.783-.323z"/></symbol><symbol viewBox="0 0 31.494 31.494" id="left-arrow" xmlns="http://www.w3.org/2000/svg"><path d="M10.273 5.009a1.112 1.112 0 011.587 0 1.12 1.12 0 010 1.571l-8.047 8.047h26.554c.619 0 1.127.492 1.127 1.111s-.508 1.127-1.127 1.127H3.813l8.047 8.032c.429.444.429 1.159 0 1.587a1.112 1.112 0 01-1.587 0L.321 16.532a1.12 1.12 0 010-1.571l9.952-9.952z"/></symbol><symbol viewBox="0 0 17 19" id="login" xmlns="http://www.w3.org/2000/svg"><path fill-rule="evenodd" clip-rule="evenodd" d="M8.48.497a5 5 0 00-5 5v1h-1a2 2 0 00-2 2v8a2 2 0 002 2h12a2 2 0 002-2v-8a2 2 0 00-2-2h-1v-1a5 5 0 00-5-5zm-3 5v1h6v-1a3 3 0 10-6 0zm3 9a2 2 0 100-4 2 2 0 000 4z"/></symbol><symbol viewBox="0 0 18 18" id="mail" xmlns="http://www.w3.org/2000/svg"><path d="M11.74 9.035a2.676 2.676 0 11-5.352-.001 2.676 2.676 0 015.351.001zM9.063.147C4.16.147.17 4.137.17 9.04s3.99 8.888 8.894 8.888a8.837 8.837 0 005.01-1.549l.028-.017-1.198-1.393-.022.011a7.07 7.07 0 01-3.818 1.12c-3.895 0-7.066-3.17-7.066-7.066 0-3.895 3.171-7.066 7.066-7.066 3.896 0 7.067 3.17 7.067 7.066 0 .507-.056 1.014-.168 1.522-.222.92-.863 1.198-1.348 1.159-.485-.04-1.053-.385-1.059-1.232V9.035a4.502 4.502 0 00-4.497-4.497 4.502 4.502 0 00-4.497 4.497 4.502 4.502 0 004.497 4.498 4.482 4.482 0 003.187-1.327 2.894 2.894 0 002.224 1.327 3.023 3.023 0 002.045-.596c.535-.408.93-.993 1.148-1.695.034-.111.1-.373.1-.373v-.011a7.93 7.93 0 00.19-1.823C17.959 4.137 13.968.147 9.064.147z"/></symbol><symbol viewBox="0 0 9 2" id="minus" xmlns="http://www.w3.org/2000/svg"><path d="M7.584.442c.378 0 .684.336.684.75s-.306.75-.684.75H.952c-.378 0-.684-.336-.684-.75s.306-.75.684-.75h6.632z"/></symbol><symbol viewBox="0 0 9 9" id="plus" xmlns="http://www.w3.org/2000/svg"><path d="M5.018 3.442h2.566c.377 0 .684.336.684.75s-.307.75-.684.75H5.018v2.566c0 .378-.336.684-.75.684-.415 0-.75-.306-.75-.684V4.942H.952c-.378 0-.684-.336-.684-.75s.306-.75.684-.75h2.566V.876c0-.378.335-.684.75-.684.414 0 .75.306.75.684v2.566z"/></symbol><symbol viewBox="0 0 19 19" id="search" xmlns="http://www.w3.org/2000/svg"><path fill-rule="evenodd" clip-rule="evenodd" d="M11.672 13.104a7 7 0 111.414-1.414l5.172 5.171a1 1 0 01-1.414 1.414l-5.172-5.171zm.808-5.607a5 5 0 11-10 0 5 5 0 0110 0z"/></symbol><symbol viewBox="0 0 17 12" id="sloy" xmlns="http://www.w3.org/2000/svg"><path fill-rule="evenodd" clip-rule="evenodd" d="M8.74.58a8.493 8.493 0 00-7.9 5.332 8.493 8.493 0 007.9 5.33 8.493 8.493 0 007.902-5.33A8.493 8.493 0 008.74.58zm0 8.886c-1.982 0-3.59-1.592-3.59-3.554 0-1.962 1.608-3.554 3.59-3.554 1.983 0 3.592 1.592 3.592 3.554 0 1.962-1.609 3.554-3.591 3.554zM6.587 5.912a2.14 2.14 0 012.155-2.133 2.14 2.14 0 012.155 2.133A2.14 2.14 0 018.74 8.044a2.14 2.14 0 01-2.155-2.132z"/></symbol><symbol viewBox="0 0 19 18" id="star" xmlns="http://www.w3.org/2000/svg"><path d="M8.188 15.106a2.008 2.008 0 012.057.002l3.354 2.005c.803.48 1.785-.23 1.574-1.127l-.881-3.735a2.008 2.008 0 01.648-1.986l2.946-2.523c.708-.605.328-1.753-.601-1.826l-3.899-.327a2.008 2.008 0 01-1.677-1.21L10.189.834c-.36-.845-1.584-.845-1.943 0L6.726 4.37a2.008 2.008 0 01-1.677 1.208l-3.9.327C.22 5.978-.16 7.126.549 7.732l2.946 2.522c.57.489.82 1.255.648 1.986l-.88 3.735c-.212.898.77 1.607 1.573 1.127l3.353-1.996z"/></symbol><symbol viewBox="0 0 50 50" id="twitter" xmlns="http://www.w3.org/2000/svg"><path d="M41.465 8.598c1.98-.43 3.863-1.137 5.558-2.141a.99.99 0 011.125.07c.325.254.461.684.336 1.078-.367 1.145-.972 2.165-1.68 3.106.536-.184 1.137-.207 1.649-.434a.99.99 0 011.176.254c.289.344.316.836.066 1.203-1.273 1.914-2.902 3.547-4.722 4.942.007.277.03.554.03.84 0 6.714-2.542 13.906-7.421 19.445-4.883 5.535-12.16 9.41-21.434 9.41a28.653 28.653 0 01-15.53-4.566.993.993 0 01.652-1.832c.722.086 1.445.125 2.203.125 3.5 0 6.742-.98 9.539-2.641-3.512-.965-6.348-3.602-7.457-7.05a.993.993 0 011.117-1.273c.031.007.062-.005.094-.001-2.797-1.95-4.692-5.13-4.692-8.793v-.125a.993.993 0 01.488-.844.982.982 0 01.973-.023c.242.136.52.195.777.308-1.32-1.793-2.175-3.98-2.175-6.367 0-1.973.535-3.809 1.46-5.406a.994.994 0 011.65-.121c4.413 5.414 10.913 8.957 18.26 9.66-.034-.352-.124-.7-.124-1.059 0-5.941 4.836-10.777 10.781-10.777 2.836 0 5.375 1.21 7.3 3.012zM25.37 16.363c0 .692.098 1.375.25 2.02a.991.991 0 01-1.023 1.21c-7.86-.394-14.817-4.015-19.79-9.472-.386.992-.683 2.035-.683 3.168a8.811 8.811 0 003.914 7.332.992.992 0 01-.59 1.832c-1.11-.035-2.137-.309-3.137-.652.614 3.578 3.266 6.46 6.801 7.176a.995.995 0 01.063 1.925c-.903.246-1.875.371-2.856.371h-.156c1.465 2.696 4.211 4.602 7.484 4.66a.996.996 0 01.594 1.77c-3.125 2.453-6.992 3.934-11.183 4.258a26.623 26.623 0 0011.09 2.422c8.726 0 15.398-3.606 19.94-8.758 4.544-5.152 6.927-11.898 6.927-18.11 0-.41-.016-.808-.032-1.214a.983.983 0 01.407-.867 18.963 18.963 0 002.793-2.485c-.946.25-1.833.656-2.825.774a.995.995 0 01-.652-1.863 8.897 8.897 0 002.547-2.329c-1.2.485-2.434.864-3.73 1.117a1.003 1.003 0 01-.93-.277 8.795 8.795 0 00-6.43-2.797 8.773 8.773 0 00-8.793 8.79zm0 0"/><path d="M34.164 5.586c-5.945 0-10.781 4.836-10.781 10.777 0 .36.09.707.125 1.059-7.348-.703-13.848-4.246-18.262-9.66a.994.994 0 00-1.648.121 10.726 10.726 0 00-1.461 5.406c0 2.387.855 4.574 2.175 6.367-.257-.113-.535-.172-.777-.308a.982.982 0 00-.973.023c-.3.176-.484.5-.488.844v.125c0 3.664 1.895 6.844 4.692 8.793-.032-.004-.063.008-.094 0a.993.993 0 00-1.117 1.273c1.11 3.45 3.945 6.086 7.457 7.051-2.797 1.66-6.04 2.64-9.54 2.64-.757 0-1.48-.038-2.202-.124a.994.994 0 00-.653 1.832 28.653 28.653 0 0015.531 4.566c9.274 0 16.551-3.875 21.434-9.41 4.879-5.54 7.422-12.73 7.422-19.445 0-.286-.024-.563-.031-.84 1.82-1.395 3.449-3.028 4.722-4.942a.998.998 0 00-.066-1.203.99.99 0 00-1.176-.254c-.512.227-1.113.25-1.648.434.707-.941 1.312-1.961 1.68-3.106a.991.991 0 00-.337-1.078.99.99 0 00-1.125-.07c-1.695 1.004-3.578 1.711-5.558 2.14-1.926-1.8-4.465-3.011-7.3-3.011zm0 1.988a8.795 8.795 0 016.43 2.797c.242.246.593.352.93.277a20.363 20.363 0 003.73-1.117 8.897 8.897 0 01-2.547 2.328.995.995 0 00.652 1.864c.993-.118 1.88-.524 2.825-.774a18.963 18.963 0 01-2.793 2.485.983.983 0 00-.407.867c.016.406.032.804.032 1.215 0 6.21-2.383 12.957-6.926 18.109-4.543 5.152-11.215 8.758-19.942 8.758-3.964 0-7.707-.88-11.09-2.422 4.192-.324 8.06-1.805 11.184-4.258a.996.996 0 00-.594-1.77c-3.273-.058-6.02-1.964-7.484-4.66h.156c.98 0 1.953-.125 2.856-.37a.995.995 0 00-.063-1.926c-3.535-.715-6.187-3.598-6.8-7.176 1 .344 2.027.617 3.136.652a.992.992 0 00.59-1.832 8.811 8.811 0 01-3.914-7.332c0-1.133.297-2.176.684-3.168 4.972 5.457 11.93 9.078 19.789 9.473a.994.994 0 001.023-1.211 8.823 8.823 0 01-.25-2.02 8.773 8.773 0 018.793-8.789zm0 0"/></symbol><symbol viewBox="0 0 17 19" id="user" xmlns="http://www.w3.org/2000/svg"><path d="M8.774 8.084a4 4 0 100-8 4 4 0 000 8zM8.774 10.084a9.985 9.985 0 00-8 4 9.985 9.985 0 008 4 9.985 9.985 0 008-4 9.985 9.985 0 00-8-4z"/></symbol><symbol viewBox="0 0 17 19" id="user-svg" xmlns="http://www.w3.org/2000/svg"><path d="M8.436 8.532a4 4 0 100-8 4 4 0 000 8zM8.436 10.532a9.985 9.985 0 00-8 4 9.985 9.985 0 008 4 9.985 9.985 0 008-4 9.985 9.985 0 00-8-4z"/></symbol><symbol viewBox="0 0 17 12" id="view" xmlns="http://www.w3.org/2000/svg"><path d="M8.854.665c-3.637 0-6.742 2.262-8 5.455 1.258 3.192 4.363 5.454 8 5.454 3.636 0 6.741-2.262 8-5.454-1.259-3.193-4.364-5.455-8-5.455zm0 9.09a3.638 3.638 0 01-3.637-3.635 3.638 3.638 0 013.637-3.637A3.638 3.638 0 0112.49 6.12a3.638 3.638 0 01-3.636 3.636zm0-5.817A2.179 2.179 0 006.672 6.12c0 1.207.974 2.181 2.182 2.181a2.179 2.179 0 002.181-2.181 2.179 2.179 0 00-2.181-2.182z"/></symbol></svg>